<svg width="112" height="112" viewBox="0 0 112 112" fill="none" xmlns="http://www.w3.org/2000/svg">
  <defs>
    <linearGradient id="ringA" x1="26" y1="12" x2="93" y2="98" gradientUnits="userSpaceOnUse">
      <stop stop-color="#5FD5FF"/>
      <stop offset="0.48" stop-color="#157FEA"/>
      <stop offset="1" stop-color="#063A9A"/>
    </linearGradient>
    <linearGradient id="washer" x1="42" y1="30" x2="77" y2="84" gradientUnits="userSpaceOnUse">
      <stop stop-color="#FFFFFF"/>
      <stop offset="0.54" stop-color="#D9F0FF"/>
      <stop offset="1" stop-color="#7CC6F6"/>
    </linearGradient>
    <linearGradient id="water" x1="49" y1="55" x2="73" y2="78" gradientUnits="userSpaceOnUse">
      <stop stop-color="#CFF8FF"/>
      <stop offset="0.48" stop-color="#2497EE"/>
      <stop offset="1" stop-color="#073C9E"/>
    </linearGradient>
    <filter id="softShadow" x="8" y="0" width="100" height="108" filterUnits="userSpaceOnUse" color-interpolation-filters="sRGB">
      <feDropShadow dx="0" dy="6" stdDeviation="4" flood-color="#074EA5" flood-opacity="0.25"/>
    </filter>
  </defs>

  <g filter="url(#softShadow)">
    <path d="M60 13C81.5 13 99 30.5 99 52C99 73.5 81.5 91 60 91C38.5 91 21 73.5 21 52C21 30.5 38.5 13 60 13ZM60 25C45.1 25 33 37.1 33 52C33 66.9 45.1 79 60 79C74.9 79 87 66.9 87 52C87 37.1 74.9 25 60 25Z" fill="url(#ringA)"/>
    <path d="M20 52C20 45.2 21.7 38.9 24.8 33.3L37 40.5C35.2 43.9 34.2 47.8 34.2 52H20Z" fill="#C8F0FF"/>
    <path d="M35 19.3C42 14.6 50.6 12 60 12V25.7C53.5 25.7 47.6 27.5 42.8 30.7L35 19.3Z" fill="#3BB8FF"/>
    <path d="M89.4 25C95.4 31.7 99 40.6 99 52H85.3C85.3 44.8 83 39 78.8 34.1L89.4 25Z" fill="#096DE2"/>
    <path d="M83.1 80.1C76.8 86 68.8 89.8 60 90.2V76.7C65 76.3 69.6 74.3 73.3 71.1L83.1 80.1Z" fill="#0A4FBC"/>
    <path d="M31.2 78.4C25.8 72.2 22.1 64.6 20.8 56.1L34.5 55.2C35.4 60.7 37.9 65.6 41.8 69.5L31.2 78.4Z" fill="#7AD8FF"/>
    <circle cx="20" cy="20" r="8" fill="#7AD8FF" stroke="white" stroke-width="3"/>
    <circle cx="34" cy="9" r="5" fill="#1E9AF3" stroke="white" stroke-width="2"/>
    <circle cx="48" cy="13" r="4" fill="#B8ECFF" stroke="white" stroke-width="2"/>
    <circle cx="28" cy="35" r="5" fill="#F5FDFF" stroke="#9DE3FF" stroke-width="2"/>
    <path d="M42 31H78C81.4 31 84 33.6 84 37V83C84 86.4 81.4 89 78 89H42C38.6 89 36 86.4 36 83V37C36 33.6 38.6 31 42 31Z" fill="url(#washer)" stroke="#FFFFFF" stroke-width="5"/>
    <rect x="43" y="39" width="34" height="10" rx="3" fill="#073C9E"/>
    <circle cx="48" cy="44" r="2" fill="#8FE7FF"/>
    <circle cx="56" cy="44" r="2" fill="#8FE7FF"/>
    <path d="M62 44H73" stroke="#E9FAFF" stroke-width="3" stroke-linecap="round"/>
    <circle cx="60" cy="68" r="17" fill="#082F86" stroke="#FFFFFF" stroke-width="4"/>
    <circle cx="60" cy="68" r="11" fill="url(#water)"/>
    <path d="M52 68C57 63 64 73 70 67" stroke="#DDF9FF" stroke-width="3" stroke-linecap="round"/>
    <path d="M68 80C75 77 83 76 90 81C84 85 73 86 62 84C64 82 66 81 68 80Z" fill="#D5EEFF" stroke="#FFFFFF" stroke-width="2"/>
    <path d="M77 72C84 70 91 72 95 76C91 80 81 80 72 77C73 75 75 73 77 72Z" fill="#FFFFFF" stroke="#D5EEFF" stroke-width="2"/>
  </g>
</svg>
