<svg xmlns="http://www.w3.org/2000/svg" viewBox="0 0 96 96" role="img" aria-label="WhatsApp">
  <circle cx="48" cy="48" r="48" fill="#25d366"/>
  <path
    fill="none"
    stroke="#ffffff"
    stroke-linecap="round"
    stroke-linejoin="round"
    stroke-width="6.6"
    d="M48 18.7c-16.8 0-30.4 13.1-30.4 29.2 0 5.5 1.7 10.8 4.8 15.5l-3.2 15.1 15.7-4.1c4 2.1 8.4 3.2 13.1 3.2 16.8 0 30.4-13.1 30.4-29.7S64.8 18.7 48 18.7Z"
  />
  <path
    fill="#ffffff"
    d="M35.2 32.4c-.7-1.6-1.5-1.6-2.1-1.7h-1.8c-.6 0-1.6.2-2.4 1.1-.9.9-3.2 3.1-3.2 7.7 0 4.5 3.3 8.9 3.8 9.5.5.6 6.5 10.1 15.7 13.8 7.7 3 9.3 2.4 11 2.3 1.7-.2 5.5-2.2 6.2-4.4.8-2.1.8-3.9.5-4.3-.2-.4-.9-.6-1.8-1.1l-6.4-3c-.9-.4-1.6-.6-2.3.4-.7 1-2.6 3.1-3.2 3.8-.6.6-1.1.7-2.1.3-.9-.5-3.9-1.5-7.4-4.6-2.7-2.4-4.6-5.4-5.1-6.3-.6-.9-.1-1.4.4-1.9.4-.4.9-.9 1.4-1.5.5-.5.6-.9.9-1.5.3-.6.2-1.1-.1-1.7l-2.4-5.9Z"
  />
</svg>
